HIERARCHY
ROOT Hips
{
  OFFSET 263.056 91.6644 -274.608
  CHANNELS 6 Xposition Yposition Zposition Zrotation Xrotation Yrotation
  JOINT LeftUpLeg
  {
    OFFSET 8.64259 1.95398 -2.38835
    CHANNELS 3 Zrotation Xrotation Yrotation
    JOINT LeftLeg
    {
      OFFSET 43.7702 0 0
      CHANNELS 3 Zrotation Xrotation Yrotation
      JOINT LeftFoot
      {
        OFFSET 40.6238 0 0
        CHANNELS 3 Zrotation Xrotation Yrotation
        JOINT LeftToeBase
        {
          OFFSET 12.7242 0 0
          CHANNELS 3 Zrotation Xrotation Yrotation
          End Site
          {
            OFFSET 0 0 0
          }
        }
      }
    }
  }
  JOINT RightUpLeg
  {
    OFFSET -8.2249 1.95398 -2.59336
    CHANNELS 3 Zrotation Xrotation Yrotation
    JOINT RightLeg
    {
      OFFSET 43.5653 0 0
      CHANNELS 3 Zrotation Xrotation Yrotation
      JOINT RightFoot
      {
        OFFSET 40.6238 0 0
        CHANNELS 3 Zrotation Xrotation Yrotation
        JOINT RightToeBase
        {
          OFFSET 12.7242 0 0
          CHANNELS 3 Zrotation Xrotation Yrotation
          End Site
          {
            OFFSET 0 0 0
          }
        }
      }
    }
  }
  JOINT Spine
  {
    OFFSET 0.165834 0.87714 6.61349
    CHANNELS 3 Zrotation Xrotation Yrotation
    JOINT Spine1
    {
      OFFSET 7.38963 1.71661e-005 0
      CHANNELS 3 Zrotation Xrotation Yrotation
      JOINT Spine2
      {
        OFFSET 11.9445 1.14441e-005 0
        CHANNELS 3 Zrotation Xrotation Yrotation
        JOINT Spine3
        {
          OFFSET 14.7254 4.19617e-005 0
          CHANNELS 3 Zrotation Xrotation Yrotation
          JOINT Spine4
          {
            OFFSET 10.9679 0 0
            CHANNELS 3 Zrotation Xrotation Yrotation
            JOINT RightShoulder
            {
              OFFSET 2.46616 -1.6653 3.69651
              CHANNELS 3 Zrotation Xrotation Yrotation
              JOINT RightArm
              {
                OFFSET 13.0012 0 0
                CHANNELS 3 Zrotation Xrotation Yrotation
                JOINT RightForeArm
                {
                  OFFSET 28.7848 1.52588e-005 0
                  CHANNELS 3 Zrotation Xrotation Yrotation
                  JOINT RightHand
                  {
                    OFFSET 26.5688 1.52588e-005 0
                    CHANNELS 3 Zrotation Xrotation Yrotation
                    End Site
                    {
                      OFFSET 0 0 0
                    }
                  }
                }
              }
            }
            JOINT LeftShoulder
            {
              OFFSET 2.38034 -1.29275 -3.7523
              CHANNELS 3 Zrotation Xrotation Yrotation
              JOINT LeftArm
              {
                OFFSET 16.3182 6.10352e-005 0
                CHANNELS 3 Zrotation Xrotation Yrotation
                JOINT LeftForeArm
                {
                  OFFSET 27.0901 0 0
                  CHANNELS 3 Zrotation Xrotation Yrotation
                  JOINT LeftHand
                  {
                    OFFSET 24.5451 1.52588e-005 0
                    CHANNELS 3 Zrotation Xrotation Yrotation
                    End Site
                    {
                      OFFSET 0 0 0
                    }
                  }
                }
              }
            }
            JOINT Neck
            {
              OFFSET 5.0226 -0.0266342 0
              CHANNELS 3 Zrotation Xrotation Yrotation
              JOINT Head
              {
                OFFSET 6.69364 2.86102e-005 0
                CHANNELS 3 Zrotation Xrotation Yrotation
                End Site
                {
                  OFFSET 0 0 0
                }
              }
            }
          }
        }
      }
    }
  }
}
MOTION
Frames:	18
Frame Time:	0.0416667
-7.31542 97.5589 -79.908 -95.3833 -84.8849 -94.7298 -172.584 2.70819 92.618 -9.30307 8.69731 1.44245 61.686 4.41456 6.50555 34.072 5.99055 -8.65819 177.183 4.43935 87.9052 -13.2675 -0.129638 -1.79169 65.0549 -1.76439 -0.956483 31.008 -0.266412 9.29604 -0.0344416 6.9439 -89.8662 12.986 -0.00403629 0.268169 1.31503 0.00777102 0.268089 -21.2199 -0.0844472 0.254556 -1.20727 -0.0844467 0.254565 79.4183 -51.6316 -116.096 27.0752 -10.9196 6.04257 -8.63609 -18.4121 -37.9987 -2.27596 -0.345128 3.47217 -104.202 -44.48 55.5178 -28.2656 11.8868 1.83303 2.20266 11.9484 -27.689 14.4082 1.05418 3.37958 6.20662 1.32853 4.17459 2.0517 0.390534 -2.25996 
-7.29891 97.5702 -79.8935 -94.8469 -84.7846 -93.9931 -172.274 2.9249 92.9629 -9.58258 9.39864 1.15475 61.6874 4.39925 6.80433 34.7156 6.60632 -8.55851 177.196 4.35528 88.0589 -13.0422 -0.247692 -1.69995 64.939 -1.77732 -0.966254 30.8601 -0.274258 9.00136 -0.0283042 6.94368 -89.8983 12.9865 -0.00731412 0.204342 1.31548 0.00169106 0.204453 -21.2195 -0.0683934 0.1927 -1.2069 -0.0683913 0.19269 79.2663 -51.6843 -116.295 26.8491 -11.0787 6.01797 -8.08098 -17.9601 -37.509 -2.55601 -0.352456 3.01103 -104.231 -44.5593 55.5119 -28.3159 11.6913 2.02155 2.4908 12.0508 -28.106 14.0846 1.07093 3.64809 6.33035 1.49632 3.36519 2.23474 0.767237 -0.942734 
-7.23888 97.5811 -79.8564 -97.1009 -84.7756 -95.9304 -171.99 3.06191 93.3407 -10.1413 9.47011 1.0115 61.9111 4.31786 6.88146 35.0398 6.92862 -7.11311 177.18 3.8754 88.2695 -12.551 -0.60607 -1.58415 64.9557 -1.90557 -1.04854 30.6093 -0.277246 8.30972 -0.0193059 6.98375 -89.9238 12.9064 -0.00170205 0.152508 1.23543 0.00501305 0.152426 -21.2997 -0.0474597 0.14495 -1.28702 -0.0474555 0.14494 79.405 -51.6333 -116.114 27.0154 -11.0953 5.7998 -8.02399 -17.8334 -38.0056 -3.07183 -0.39474 4.17046 -104.21 -44.4574 55.4962 -28.1642 11.9622 1.99036 2.28413 11.8461 -28.1235 14.2803 1.04354 3.36554 6.23116 1.50663 3.79473 2.16398 0.66274 -1.69192 
-7.24469 97.5741 -79.8454 -98.7673 -84.6042 -97.395 -171.732 2.85997 93.6102 -10.0982 9.97153 0.839873 61.9401 4.65021 7.78056 35.049 6.93994 -6.83724 177.2 3.8372 88.4359 -12.8503 -0.81559 -1.52708 65.0274 -1.97928 -1.09255 30.4138 -0.282389 7.88025 -0.000217921 7.01325 -89.9372 12.8473 0.0297375 0.122056 1.17635 0.0350845 0.120626 -21.3588 -0.00832071 0.125344 -1.34611 -0.00831795 0.125353 79.4486 -51.8122 -115.981 26.8457 -11.3491 5.67542 -7.58595 -17.2048 -38.404 -3.19934 -0.401138 4.64468 -104.02 -44.312 55.7115 -28.1857 12.126 1.99732 2.10925 11.0988 -28.5638 13.9161 1.12459 4.11131 6.35624 1.57372 3.67086 1.84857 0.749692 -1.7583 
-7.35925 97.5646 -79.7885 -95.8608 -84.5449 -94.4967 -171.662 2.9954 93.7229 -9.90915 10.1576 0.765647 61.6415 4.60631 8.30553 35.9802 7.80986 -8.75069 177.31 4.33977 88.5445 -13.3861 -0.791274 -1.54628 65.3169 -2.10541 -1.16366 30.1631 -0.309782 7.7739 0.0101816 6.99006 -89.9189 12.8937 0.0591441 0.155097 1.22274 0.0659234 0.152334 -21.3123 0.00979101 0.1657 -1.29969 0.00980105 0.165701 79.345 -51.9686 -116.069 26.9951 -11.3328 5.82827 -8.23739 -17.5116 -38.7365 -3.25528 -0.410615 4.75607 -103.845 -44.0981 55.8736 -28.3375 12.1358 2.01689 2.18172 10.7956 -28.9816 13.604 1.26571 5.27218 6.41853 1.56381 3.19477 1.79947 0.858181 -1.16 
-7.55201 97.5681 -79.8513 -97.6148 -84.5894 -96.3446 -171.651 2.78519 93.8208 -9.76285 10.0914 0.851719 61.7242 4.87756 8.52982 36.1371 7.91394 -10.4495 177.355 4.73525 88.5906 -14.4558 -0.762976 -1.59325 65.3755 -2.1218 -1.1713 30.926 -0.185247 7.22704 -0.0104116 7.00934 -89.8943 12.8551 0.0300472 0.207774 1.18417 0.0391568 0.206247 -21.3509 -0.0337902 0.207197 -1.33822 -0.0337904 0.207197 79.1922 -52.0471 -116.258 27.1679 -11.1263 5.9872 -8.57323 -17.748 -38.641 -3.23067 -0.407728 4.49902 -103.63 -43.9991 56.1495 -28.4016 12.0841 2.14554 2.62506 11.458 -29.3233 13.0702 1.30304 5.88836 6.35037 1.62266 3.25674 1.85728 0.903386 -1.19963 
-7.85612 97.5264 -80.0233 -103.073 -84.4495 -101.864 -171.396 2.15781 94.11 -9.43643 10.5039 0.749582 61.8023 5.27827 8.7017 35.946 7.72899 -10.8167 177.514 5.06237 88.8066 -16.0518 -0.644109 -1.74779 66.0449 -2.36705 -1.30303 30.436 -0.203354 6.30938 -0.0100859 7.0692 -89.8604 12.7354 0.0467333 0.273491 1.06438 0.0587213 0.271166 -21.4705 -0.03763 0.274889 -1.4579 -0.037625 0.27489 79.1406 -52.1195 -116.304 27.4775 -10.9808 6.13931 -8.1905 -17.1942 -38.6364 -3.42073 -0.413906 4.39392 -103.536 -43.8909 56.2408 -28.2985 12.1297 2.51436 3.19467 12.1372 -30.0736 12.3404 1.32334 6.54553 6.15902 1.58428 2.90618 2.14459 0.941563 -1.07882 
-8.22254 97.487 -80.1011 -105.827 -84.5002 -104.556 -171.299 2.00534 94.453 -9.44183 10.8822 0.8258 61.684 5.48415 9.18698 36.7658 8.44661 -11.8039 177.726 5.57723 89.1748 -17.5619 -0.214994 -1.806 66.4591 -2.54649 -1.3979 30.4201 -0.169542 5.59088 -0.0264012 7.10091 -89.8263 12.6718 0.0305459 0.343467 1.00086 0.0456301 0.34179 -21.534 -0.0740904 0.33678 -1.5213 -0.0741017 0.336758 79.2663 -52.277 -116.061 27.8218 -11.0632 6.3255 -7.74661 -15.6538 -39.828 -3.58887 -0.424851 5.01812 -103.28 -43.581 56.483 -28.2899 12.1435 2.66444 3.11147 11.7852 -30.1872 12.2984 1.16342 5.34418 6.15769 1.63547 2.38552 2.17085 1.10945 -0.706785 
-8.55789 97.4311 -80.1514 -108.161 -84.308 -106.533 -171.539 1.8618 94.7797 -9.68681 11.0075 1.40328 61.3143 5.45207 9.82931 38.1968 9.77584 -11.0719 177.951 6.10412 89.7637 -19.1073 0.00122906 -1.73431 66.5188 -2.63832 -1.4499 31.0639 -0.0649517 4.80672 -0.0191961 7.13981 -89.8219 12.5941 0.0467952 0.350303 0.923061 0.0621616 0.347901 -21.6117 -0.060648 0.348171 -1.59908 -0.0606488 0.348178 79.6264 -52.1351 -115.597 28.5682 -11.0184 6.50432 -6.86206 -15.0227 -39.3599 -5.69555 -0.5688 4.91171 -102.777 -43.1029 57.0237 -28.4411 12.4446 2.78433 3.7837 12.1831 -31.742 11.2427 1.13801 5.89407 6.30241 1.69236 1.96931 2.08159 1.25467 -0.462317 
-9.1364 97.3803 -80.1777 -111.859 -84.656 -109.694 -171.625 2.48855 95.5293 -11.1264 10.391 1.97074 61.8012 5.16798 8.29469 38.9746 10.6203 -9.16666 178.21 6.5868 90.5743 -20.6747 0.264199 -1.54147 66.457 -2.69578 -1.48771 33.001 0.167409 3.59297 -0.0246717 7.18696 -89.8149 12.4998 0.0391548 0.365221 0.828759 0.0551949 0.363141 -21.706 -0.0724186 0.360104 -1.69335 -0.0724198 0.360093 80.3166 -52.1515 -114.594 29.2402 -11.0766 6.4929 -5.43542 -13.2201 -39.515 -8.4406 -0.74742 4.66484 -103 -42.409 56.3588 -28.048 11.9541 3.22354 5.32442 12.7039 -34.2323 9.22475 1.12385 7.53648 6.55817 1.41703 1.01759 1.81687 1.17865 -0.222461 
-9.80372 97.2607 -80.306 -115.984 -85.1623 -113.288 -171.615 3.66333 96.4085 -13.1621 10.5885 2.28074 62.0622 4.77947 7.30651 40.0749 11.723 -8.39859 178.263 7.03258 91.3571 -21.9895 1.08796 -1.07279 67.2152 -3.11293 -1.71119 35.3286 0.382257 3.94689 -0.0315324 7.26146 -89.8037 12.3507 0.0305979 0.388654 0.679749 0.047674 0.386926 -21.855 -0.0876225 0.37988 -1.84231 -0.0876222 0.37988 80.3787 -51.8676 -114.611 30.1394 -10.2213 7.3786 -4.17059 -10.3236 -41.0565 -9.78073 -0.849813 4.85833 -102.809 -41.9327 56.426 -26.8984 10.765 2.63663 6.80689 12.2619 -36.6206 6.27747 0.743457 6.51733 7.36736 1.16186 0.640758 1.53729 0.972991 -0.806492 
-10.5905 97.0643 -80.5926 -125.717 -86.3868 -122.312 -171.621 5.52516 97.6724 -15.6169 12.275 2.44832 62.0728 4.72334 7.29516 41.4025 13.0456 -7.85162 178.177 7.73067 92.3022 -23.7778 2.27012 -0.363575 68.2776 -3.59578 -1.95016 37.3985 0.601081 5.35164 -0.0977855 7.33901 -89.775 12.1958 -0.0877972 0.45869 0.524743 -0.0675239 0.4621 -22.0099 -0.221597 0.411099 -1.99723 -0.221592 0.411098 80.4343 -51.5479 -114.652 30.9004 -8.87937 8.2139 -1.85997 -6.519 -41.7569 -9.01851 -0.681295 3.49634 -101.644 -41.2654 57.9202 -25.1621 10.462 0.612194 8.12353 11.8649 -39.6927 4.9421 0.579994 6.10204 7.78895 0.925824 0.247613 1.93865 0.772772 -1.74873 
-11.4509 96.7859 -80.8894 -155.962 -88.0858 -151.841 -172.027 8.11879 98.9047 -18.4373 14.6689 2.67539 61.6649 4.65489 7.57081 43.1567 14.7191 -7.86574 177.966 9.62595 93.0714 -27.3387 2.31426 0.329671 68.6075 -3.66813 -1.98995 40.1906 0.887525 4.98564 -0.171649 7.39386 -89.7121 12.0864 -0.205118 0.597048 0.415301 -0.178647 0.60549 -22.1191 -0.375081 0.507796 -2.1065 -0.375075 0.507791 79.8142 -51.5873 -115.539 31.0966 -7.46777 9.33413 0.981531 -2.52501 -40.5645 -7.52467 -0.399924 0.949844 -100.523 -40.3464 59.2625 -21.9048 11.5434 -2.61316 10.1929 12.599 -43.8986 4.5204 0.553233 6.28875 8.30589 0.321092 -0.517364 2.09595 0.328846 -1.9775 
-12.4074 96.3847 -81.262 124.801 -87.742 129.801 -172.896 11.4544 100.294 -22.2853 17.207 3.07663 61.4977 4.75161 7.79997 44.4693 15.8894 -8.35366 177.899 11.4172 93.9943 -30.4466 3.77415 0.825623 68.898 -3.78159 -2.03135 42.9073 1.18095 5.06791 -0.202495 7.44963 -89.6726 11.9749 -0.248154 0.679808 0.303782 -0.217996 0.690071 -22.2305 -0.440991 0.573807 -2.21783 -0.440994 0.573804 79.9215 -51.462 -115.431 31.1918 -6.55484 10.2831 4.56894 1.60983 -37.7698 -4.80867 -0.111274 -1.92888 -100.109 -39.4013 59.4931 -18.4494 11.6676 -6.28823 11.8387 11.4988 -48.8212 6.74158 0.828856 7.13789 8.91854 -0.578247 -0.679551 1.91084 -0.555198 -2.97667 
-13.4489 95.8352 -81.7381 100.751 -84.6335 106.508 -174.29 15 101.574 -26.5895 20.3919 3.6531 61.2487 4.85856 8.08215 45.5951 16.7479 -9.47908 177.584 13.3652 94.4358 -34.299 5.41229 1.17149 69.1772 -3.91587 -2.08863 44.7133 1.45577 6.16461 -0.28158 7.55207 -89.6262 11.7705 -0.384356 0.785778 0.0993644 -0.349402 0.801932 -22.4349 -0.602748 0.633937 -2.42225 -0.602745 0.633944 79.487 -51.6217 -116 30.6915 -4.89651 11.6342 4.7056 2.07049 -34.3056 -1.01421 0.0294786 -3.31495 -99.9214 -38.7526 59.4975 -13.9083 11.3023 -10.7218 14.6043 10.9291 -54.4024 7.92526 1.02315 7.93348 9.10718 -1.43242 0.0540618 2.32606 -1.64338 -4.75354 
-14.5351 95.0265 -82.302 96.3618 -81.9724 102.533 -175.914 18.1545 102.526 -30.753 22.8356 4.34484 60.3292 4.40647 8.65022 49.4495 19.7118 -12.0095 177.338 15.5727 94.281 -38.8109 6.25262 0.935635 69.8698 -4.20741 -2.21699 45.327 1.52681 6.15541 -0.270728 7.70071 -89.5093 11.4728 -0.309288 1.00911 -0.198473 -0.264576 1.02174 -22.7315 -0.598259 0.869531 -2.7188 -0.598256 0.869516 78.2327 -52.5668 -117.427 29.369 -2.77698 12.8922 2.87149 2.2893 -32.497 1.5449 0.0882851 -2.03974 -99.5455 -37.8803 59.7054 -8.61283 10.4971 -16.2068 16.6315 9.82269 -59.1534 9.65674 1.26663 8.46752 8.88665 -2.38207 0.668225 3.48877 -2.87507 -6.79023 
-15.5717 94.0996 -82.9079 93.3555 -79.7359 99.7226 -177.459 21.3461 103.266 -34.8458 25.7182 4.82942 59.3096 3.50338 9.00031 50.7568 21.2948 -10.2771 177.13 17.7515 93.4927 -42.9241 7.26803 0.285582 70.4579 -4.61218 -2.40196 45.1071 1.52875 6.49214 -0.192338 7.8734 -89.3804 11.1259 -0.0950754 1.24255 -0.545589 -0.0403064 1.24552 -23.0765 -0.464103 1.15655 -3.06385 -0.464098 1.15655 77.1212 -53.9199 -118.45 27.0305 -0.849648 13.8251 2.4152 3.32367 -29.9701 -0.880091 0.0218958 -1.49827 -99.3422 -36.5569 59.4196 -3.88498 8.36758 -21.9204 18.9521 9.23559 -63.0173 11.2611 1.562 9.38851 7.85036 -3.35168 0.751747 5.74239 -4.08491 -8.27533 
-16.521 92.9795 -83.5206 88.4407 -77.9215 94.7334 -178.612 24.6317 103.689 -37.7054 26.6198 4.89892 59.1971 4.21917 10.9807 55.1022 23.6372 -15.4336 177.253 20.5032 91.9841 -46.8188 8.3676 -0.855503 71.2245 -5.09521 -2.61363 45.7746 1.43744 4.52799 -0.172185 7.97656 -89.3065 10.9188 -0.0219914 1.38155 -0.75291 0.0388393 1.38117 -23.2826 -0.43615 1.31109 -3.26994 -0.43615 1.31109 75.4918 -54.4626 -120.495 24.2328 2.65697 15.48 4.31376 9.03513 -27.8867 -5.80794 -0.0379188 -2.9308 -98.4931 -35.2397 60.2202 -0.281294 5.80296 -28.6876 18.6675 9.08843 -63.0316 14.1986 1.90296 9.24669 7.14523 -3.81223 2.2052 7.42433 -5.10761 -10.0033 
